<svg width="230" height="78" viewBox="0 0 230 78" fill="none" xmlns="http://www.w3.org/2000/svg">
<path d="M29.4376 33.6852C30.54 33.6852 31.4338 32.7881 31.4338 31.6813C31.4338 30.5745 30.54 29.6771 29.4376 29.6771H6.7974C5.69429 29.6771 4.80003 28.7793 4.80003 27.6717V20.9814C4.80003 19.8738 5.69429 18.976 6.7974 18.976H28.1016C29.202 18.976 30.0941 18.0803 30.0941 16.9755C30.0941 15.8708 29.2024 14.9752 28.102 14.9749L6.79683 14.9689C5.69394 14.9686 4.80003 14.0709 4.80003 12.9635V6.94636C4.80003 5.83899 5.69401 4.94122 6.79694 4.94098L29.4396 4.93573C30.541 4.93549 31.4338 4.039 31.4338 2.9332C31.4338 1.82722 30.5408 0.930664 29.4392 0.930664H2.13897C1.03585 0.930664 0.141602 1.8285 0.141602 2.93606V31.6799C0.141602 32.7875 1.03585 33.6852 2.13897 33.6852H29.4376Z" fill="#2F3D4C"/>
<path d="M111.995 33.6852C113.098 33.6852 113.991 32.7881 113.991 31.6813C113.991 30.5745 113.098 29.6771 111.995 29.6771H89.3551C88.2519 29.6771 87.3577 28.7793 87.3577 27.6717V20.9814C87.3577 19.8738 88.2519 18.976 89.3551 18.976H110.66C111.761 18.976 112.653 18.0813 112.656 16.9762C112.658 15.868 111.764 14.9684 110.66 14.9684H89.3551C88.2519 14.9684 87.3577 14.0705 87.3577 12.963V6.94683C87.3577 5.83927 88.2519 4.94144 89.3551 4.94144H111.994C113.097 4.94144 113.991 4.0436 113.991 2.93606C113.991 1.8285 113.097 0.930664 111.994 0.930664H84.6966C83.5934 0.930664 82.6992 1.8285 82.6992 2.93606V31.6799C82.6992 32.7875 83.5934 33.6852 84.6966 33.6852H111.995Z" fill="#2F3D4C"/>
<path d="M121.316 33.6852C122.42 33.6852 123.315 32.7875 123.315 31.6799V10.156C123.315 8.41295 125.377 7.49977 126.659 8.67515L153.367 33.1608C153.735 33.4983 154.215 33.6852 154.714 33.6852H157.936C159.039 33.6852 159.933 32.7875 159.933 31.6799V2.93604C159.933 1.8285 159.039 0.930664 157.936 0.930664C156.833 0.930664 155.939 1.8285 155.939 2.93604V25.0546C155.939 26.809 153.854 27.7175 152.577 26.5197L125.889 1.4711C125.519 1.12384 125.032 0.930664 124.525 0.930664H121.315C120.212 0.930664 119.318 1.8285 119.318 2.93606V31.6799C119.318 32.7875 120.213 33.6852 121.316 33.6852Z" fill="#2F3D4C"/>
<path fill-rule="evenodd" clip-rule="evenodd" d="M149.278 77.1361C152.607 77.1361 155.534 76.0438 157.267 74.4622C159.001 72.8806 159.936 70.3299 159.931 67.1091C159.927 65.0363 159.435 63.7397 158.432 62.3701C157.616 61.2554 156.52 60.4601 155.143 59.9843C157.55 59.0552 158.605 57.0245 158.599 53.7399C158.594 50.7423 157.69 47.9781 155.936 46.3868C154.181 44.7954 151.231 44.3757 147.946 44.3814H121.315C120.212 44.3814 119.317 45.2792 119.317 46.3868V75.1301C119.317 76.2377 120.212 77.1354 121.315 77.1354L149.278 77.1361ZM125.309 56.4137C124.207 56.4137 123.312 55.516 123.312 54.4083V49.7291C123.312 48.6215 124.207 47.7237 125.309 47.7237H146.615C148.947 47.7203 150.9 48.2945 151.975 49.2065C152.865 49.9667 153.27 50.9716 153.273 52.403C153.276 53.8343 152.848 54.9842 151.905 55.6709C150.963 56.3576 149.021 56.4103 146.615 56.4137H125.309ZM123.312 71.1199C123.312 72.2275 124.207 73.1253 125.309 73.1253H147.946C150.093 73.122 152.645 71.9567 153.273 71.1199C153.901 70.2831 154.608 68.9441 154.604 67.1091C154.601 65.3124 154.084 63.654 152.971 62.5087C151.859 61.3636 150.056 60.4215 147.946 60.4245H125.309C124.207 60.4245 123.312 61.3223 123.312 62.4299V71.1199Z" fill="#EE9160"/>
<path d="M95.4809 44.3809C96.2201 44.3809 96.8988 44.7908 97.2452 45.4463L112.437 74.1902C113.143 75.5259 112.179 77.1355 110.673 77.1355H109.898C109.142 77.1355 108.45 76.7062 108.112 76.0268L95.132 49.9583C94.8581 49.4079 94.2978 49.0601 93.6849 49.0601C93.0719 49.0601 92.5117 49.4079 92.2377 49.9583L79.2564 76.027C78.918 76.7064 78.2264 77.1355 77.4699 77.1355H76.6987C75.1929 77.1355 74.2287 75.5259 74.9344 74.1904L90.1227 45.4465C90.4691 44.7908 91.1478 44.3809 91.887 44.3809H95.4809Z" fill="#EE9160"/>
<path d="M66.0567 77.1357C67.1589 77.1357 68.0525 76.2386 68.0525 75.1319C68.0525 74.0251 67.1589 73.128 66.0567 73.128H43.4177C42.3145 73.128 41.4203 72.2302 41.4203 71.1226V46.3865C41.4203 45.2791 40.5259 44.3811 39.4229 44.3811H38.7571C37.6539 44.3811 36.7598 45.2791 36.7598 46.3865V75.1303C36.7598 76.238 37.6539 77.1357 38.7571 77.1357H66.0567Z" fill="#EE9160"/>
<path d="M29.4364 77.1346C30.5394 77.1346 31.4338 76.2366 31.4338 75.1292C31.4338 74.0216 30.5394 73.1238 29.4364 73.1238H2.13897C1.03585 73.1238 0.141602 74.0216 0.141602 75.1292C0.141602 76.2366 1.03585 77.1346 2.13897 77.1346H29.4364Z" fill="#EE9160"/>
<path d="M228.301 62.1263C229.201 61.9128 229.839 61.1048 229.839 60.1746V41.5401C229.839 40.2553 228.653 39.3018 227.404 39.5836L172.143 52.0516C171.232 52.2572 170.584 53.0701 170.584 54.0082V73.2659C170.584 74.5595 171.786 75.5148 173.04 75.2176L228.301 62.1263Z" fill="#EE9160"/>
<path d="M171.77 27.5303C171.049 27.2085 170.584 26.4902 170.584 25.6978V5.5948C170.584 4.0845 172.184 3.11622 173.514 3.82149L225.069 31.1569C226.71 32.0261 226.387 34.4732 224.579 34.8857L201.192 40.2226C200.771 40.3184 200.332 40.2753 199.938 40.0997L171.77 27.5303Z" fill="#2F3D4C"/>
<path d="M58.8624 33.6852C59.6016 33.6852 60.2803 33.2755 60.6267 32.62L75.8185 3.87604C76.5242 2.54039 75.56 0.930664 74.0539 0.930664H73.2798C72.523 0.930664 71.8314 1.35989 71.493 2.03937L58.5136 28.108C58.2396 28.6584 57.6793 29.006 57.0664 29.006C56.4535 29.006 55.8932 28.6584 55.6192 28.108L42.6379 2.03927C42.2996 1.35985 41.608 0.930664 40.8514 0.930664H40.0803C38.5744 0.930664 37.61 2.54023 38.3157 3.87588L53.504 32.6198C53.8506 33.2755 54.5293 33.6852 55.2685 33.6852H58.8624Z" fill="#2F3D4C"/>
</svg>
