<svg width="203" height="34" viewBox="0 0 203 34" fill="none" xmlns="http://www.w3.org/2000/svg">
<g clip-path="url(#clip0_1057:141)">
<path d="M0 20.9231H15.8182V26.1538H0V34H26.3636V13.0769H10.5455V7.84615H26.3636V0H0V20.9231Z" fill="#2B409E"/>
<path d="M73.8184 0H63.2729V34H73.8184V0Z" fill="#2B409E"/>
<path d="M47.4544 5.23077H44.8181V10.4615H42.1817V0H31.6362V34H42.1817V23.5385H44.8181V28.7692H47.4544V34H57.9999V26.1538H55.3635V20.9231H52.7271V13.0769H55.3635V7.84615H57.9999V0H47.4544V5.23077Z" fill="#2B409E"/>
<path d="M105.454 7.84615V0H79.0908V34H89.6363V20.9231H105.454V13.0769H89.6363V7.84615H105.454Z" fill="#2B409E"/>
<path d="M118.637 0V5.23077H113.364V34H123.909V26.1538H129.182V34H139.727V0H118.637ZM123.909 18.3077V7.84615H129.182V18.3077H123.909Z" fill="#C7130C"/>
<path d="M145 34H155.545V26.1538H166.091V20.9231H171.364V0H145V34ZM160.818 18.3077H155.545V7.84615H160.818V18.3077Z" fill="#C7130C"/>
<path d="M176.637 0V34H187.182V26.1538H197.728V20.9231H203V0H176.637ZM192.455 18.3077H187.182V7.84615H192.455V18.3077Z" fill="#C7130C"/>
</g>
<defs>
<clipPath id="clip0_1057:141">
<rect width="203" height="34" fill="white"/>
</clipPath>
</defs>
</svg>
