<svg width="43" height="43" viewBox="0 0 43 43" fill="none" xmlns="http://www.w3.org/2000/svg">
<path d="M31.1719 0.172363H11.9877C5.47023 0.172363 0.172363 5.47023 0.172363 11.9877V31.1846C0.172363 37.7021 5.47023 43 11.9877 43H31.1846C37.7021 43 43 37.7021 43 31.1846V12.0005C43 5.48293 37.6894 0.172363 31.1719 0.172363ZM39.2012 31.1846C39.2012 35.6058 35.6058 39.2012 31.1846 39.2012H11.9877C7.56651 39.2012 3.97107 35.6058 3.97107 31.1846V12.0005C3.97107 7.57921 7.56651 3.98378 11.9877 3.98378H31.1846C35.6058 3.98378 39.2012 7.57921 39.2012 12.0005V31.1846Z" fill="white"/>
<path d="M21.5799 10.5513C15.4944 10.5513 10.5396 15.5061 10.5396 21.5917C10.5396 27.6772 15.4944 32.6321 21.5799 32.6321C27.6655 32.6321 32.6203 27.6772 32.6203 21.5917C32.6203 15.5061 27.6655 10.5513 21.5799 10.5513ZM21.5799 28.8334C17.5907 28.8334 14.3383 25.581 14.3383 21.5917C14.3383 17.6024 17.5907 14.35 21.5799 14.35C25.5692 14.35 28.8216 17.6024 28.8216 21.5917C28.8216 25.581 25.5692 28.8334 21.5799 28.8334Z" fill="white"/>
<path d="M33.0777 7.33838C32.3409 7.33838 31.6294 7.63059 31.1085 8.15148C30.5876 8.67237 30.2954 9.38384 30.2954 10.1207C30.2954 10.8576 30.6003 11.569 31.1085 12.0899C31.6294 12.6108 32.3409 12.903 33.0777 12.903C33.8146 12.903 34.5261 12.5981 35.047 12.0899C35.5679 11.569 35.8601 10.8449 35.8601 10.1207C35.8601 9.38384 35.5679 8.67237 35.047 8.15148C34.5388 7.63059 33.8146 7.33838 33.0777 7.33838Z" fill="white"/>
</svg>
