<svg width="44" height="43" viewBox="0 0 44 43" fill="none" xmlns="http://www.w3.org/2000/svg">
<path d="M10.0764 13.9272H0.904297V42.8277H10.0764V13.9272Z" fill="white"/>
<path d="M5.48285 9.98267H5.42396C2.34697 9.98267 0.344727 7.7643 0.344727 4.99133C0.344727 2.15675 2.39114 0 5.54174 0C8.69233 0 10.621 2.15675 10.6799 4.99133C10.6799 7.7643 8.69233 9.98267 5.48285 9.98267Z" fill="white"/>
<path d="M43.1725 42.8268H34.0004V27.3753C34.0004 23.4931 32.6754 20.8434 29.3482 20.8434C26.8159 20.8434 25.2995 22.6304 24.637 24.3558C24.4014 24.972 24.3278 25.8347 24.3278 26.6974V42.8268H15.1558C15.1558 42.8268 15.2735 16.6377 15.1558 13.9264H24.3278V18.0242C25.5498 16.0523 27.7287 13.2485 32.6018 13.2485C38.638 13.2485 43.1725 17.3772 43.1725 26.2507V42.8268Z" fill="white"/>
</svg>
